# xmcd
#
# Track frame offsets:
#	150
#	17564
#	35639
#	59659
#	80876
#	97863
#	121604
#	142986
#
# Disc length: 2175 seconds
#
# Revision: 1
# Processed by: cddbd v1.5.1PL2 Copyright (c) Steve Scherf et al.
# Submitted via: dBpowerAMP V4.0
#
DISCID=62087d08
DTITLE=Jackie Neal - Lookin' For A Sweet Thang
DYEAR=1900
DGENRE=blues
TTITLE0=Your Dr. Feel Good
TTITLE1=Keep Ie Up Woman
TTITLE2=Thang Wrong Man
TTITLE3=Sweet Thang
TTITLE4=Nooky Thang
TTITLE5=M.A.N.
TTITLE6=Shattered By A Whisper
TTITLE7=Feel Good (Remix)
EXTD=Lookin' For  Sweet Thang
EXTT0=
EXTT1=
EXTT2=
EXTT3=
EXTT4=
EXTT5=
EXTT6=
EXTT7=
PLAYORDER=
